<svg xmlns="http://www.w3.org/2000/svg" xmlns:xlink="http://www.w3.org/1999/xlink" width="500" zoomAndPan="magnify" viewBox="0 0 375 374.999991" height="500" preserveAspectRatio="xMidYMid meet" version="1.0"><defs><clipPath id="0a17934b18"><path d="M 0 29 L 375 29 L 375 357.464844 L 0 357.464844 Z M 0 29 " clip-rule="nonzero"/></clipPath></defs><g clip-path="url(#0a17934b18)"><path fill="#f4a734" d="M 358.53125 29.03125 L 16.46875 29.03125 C 7.351562 29.03125 0 36.382812 0 45.5 L 0 272.640625 C 0 281.679688 7.351562 289.105469 16.46875 289.105469 L 159.191406 289.105469 C 164.558594 299.691406 164.558594 311.15625 159.191406 321.667969 L 144.191406 321.667969 C 130.957031 321.667969 120.21875 332.402344 120.21875 345.632812 L 120.21875 353.277344 C 120.21875 355.558594 122.058594 357.394531 124.339844 357.394531 L 250.589844 357.394531 C 252.867188 357.394531 254.707031 355.558594 254.707031 353.277344 L 254.707031 345.632812 C 254.707031 332.402344 243.96875 321.667969 230.734375 321.667969 L 215.734375 321.667969 C 210.367188 311.15625 210.367188 299.617188 215.734375 289.105469 L 358.457031 289.105469 C 367.5 289.105469 374.925781 281.753906 374.925781 272.640625 L 374.925781 45.5 C 375 36.382812 367.648438 29.03125 358.53125 29.03125 Z M 230.808594 329.828125 C 241.324219 329.902344 247.71875 339.089844 246.542969 349.089844 L 128.457031 349.089844 C 127.351562 339.089844 133.675781 329.902344 144.191406 329.828125 C 144.191406 329.828125 230.808594 329.828125 230.808594 329.828125 Z M 168.234375 289.105469 L 206.765625 289.105469 C 202.5 299.617188 202.5 311.15625 206.765625 321.667969 L 168.234375 321.667969 C 172.5 311.15625 172.5 299.617188 168.234375 289.105469 Z M 366.765625 272.640625 C 366.765625 277.195312 363.089844 280.871094 358.53125 280.871094 L 16.46875 280.871094 C 11.910156 280.871094 8.234375 277.195312 8.234375 272.640625 L 8.234375 251.910156 L 366.839844 251.910156 L 366.839844 272.640625 Z M 366.765625 243.675781 L 8.234375 243.675781 L 8.234375 45.5 C 8.234375 40.941406 11.910156 37.191406 16.46875 37.191406 L 358.601562 37.191406 C 363.160156 37.191406 366.839844 40.941406 366.839844 45.5 L 366.839844 243.675781 Z M 154.484375 55.203125 C 154.265625 52.777344 151.617188 51.011719 149.265625 51.820312 C 145.148438 53.070312 141.03125 53.730469 136.839844 53.878906 C 129.265625 54.320312 126.46875 52.113281 119.117188 53.144531 C 99.558594 56.304688 88.898438 77.695312 91.324219 92.101562 C 89.042969 94.453125 87.351562 97.25 86.324219 100.335938 C 83.308594 86.367188 67.71875 71.445312 50.292969 74.828125 C 44.339844 76.003906 35.660156 75.417969 29.265625 73.359375 C 28.089844 72.992188 26.839844 73.210938 25.882812 73.871094 C 24.851562 74.535156 24.191406 75.636719 24.042969 76.8125 C 19.484375 107.171875 54.410156 133.195312 82.351562 119.816406 L 85.21875 122.167969 L 85.148438 143.484375 L 77.648438 143.484375 C 72.28125 143.484375 72.28125 151.644531 77.648438 151.71875 C 77.648438 151.71875 89.265625 151.71875 89.265625 151.71875 C 89.265625 151.71875 100.882812 151.71875 100.882812 151.71875 C 106.25 151.71875 106.25 143.558594 100.882812 143.484375 C 100.882812 143.484375 93.308594 143.484375 93.308594 143.484375 C 93.308594 143.484375 93.382812 120.402344 93.382812 120.402344 C 93.382812 120.183594 93.382812 119.960938 93.382812 119.816406 C 93.675781 113.933594 91.910156 103.203125 96.617188 98.496094 C 124.558594 111.582031 159.191406 85.414062 154.484375 55.203125 Z M 49.042969 99.011719 C 59.191406 99.746094 70.957031 106.582031 76.46875 113.421875 C 56.691406 121.066406 31.765625 103.789062 31.984375 82.546875 C 37.71875 83.871094 46.765625 83.941406 51.542969 82.988281 C 53.96875 82.621094 55.734375 82.398438 58.160156 82.765625 C 70.441406 85.488281 76.839844 94.527344 78.824219 104.230469 C 70.882812 96.734375 60.808594 92.027344 50 90.851562 C 47.71875 90.558594 45.734375 92.25 45.441406 94.453125 C 45.148438 96.660156 46.765625 98.71875 49.042969 99.011719 Z M 131.910156 87.472656 C 122.867188 93.71875 111.839844 95.261719 102.132812 91.882812 C 108.96875 83.648438 118.53125 77.914062 129.042969 75.636719 C 131.25 75.121094 132.648438 72.992188 132.207031 70.785156 C 129.78125 60.933594 103.675781 77.621094 100 82.253906 C 102.132812 72.695312 108.382812 64.023438 120.515625 61.230469 C 123.015625 60.863281 124.707031 61.082031 127.207031 61.449219 C 131.984375 62.40625 140.957031 62.257812 146.765625 60.933594 C 146.398438 71.300781 141.03125 81.222656 131.910156 87.472656 Z M 159.265625 66.152344 C 159.265625 63.875 161.101562 62.039062 163.382812 62.039062 L 177.574219 62.039062 C 179.042969 62.039062 180.367188 62.847656 181.101562 64.097656 L 188.824219 77.328125 C 191.46875 81.957031 184.484375 86.074219 181.765625 81.445312 C 181.765625 81.445312 175.21875 70.269531 175.21875 70.269531 L 163.382812 70.269531 C 161.101562 70.269531 159.265625 68.433594 159.265625 66.152344 Z M 193.457031 81.148438 C 193.457031 78.871094 195.292969 77.035156 197.574219 77.035156 L 227.5 77.035156 C 229.78125 77.035156 231.617188 78.871094 231.617188 81.148438 C 231.617188 83.429688 229.78125 85.265625 227.5 85.265625 L 197.574219 85.265625 C 195.292969 85.265625 193.457031 83.429688 193.457031 81.148438 Z M 193.457031 96.441406 C 193.457031 94.160156 195.292969 92.324219 197.574219 92.324219 L 238.53125 92.324219 C 240.808594 92.324219 242.648438 94.160156 242.648438 96.441406 C 242.648438 98.71875 240.808594 100.554688 238.53125 100.554688 L 197.574219 100.554688 C 195.292969 100.484375 193.457031 98.644531 193.457031 96.441406 Z M 129.558594 129.296875 C 129.558594 131.578125 127.71875 133.414062 125.441406 133.414062 L 111.25 133.414062 C 109.78125 133.414062 108.457031 132.605469 107.71875 131.355469 L 100 118.125 C 97.28125 113.492188 104.339844 109.378906 107.058594 114.007812 C 107.058594 114.007812 113.601562 125.179688 113.601562 125.179688 L 125.441406 125.179688 C 127.71875 125.179688 129.558594 127.019531 129.558594 129.296875 Z M 172.867188 125.179688 C 178.234375 125.179688 178.234375 133.339844 172.867188 133.414062 C 172.867188 133.414062 142.941406 133.414062 142.941406 133.414062 C 140.660156 133.414062 138.824219 131.578125 138.824219 129.296875 C 138.824219 127.019531 140.660156 125.179688 142.941406 125.179688 Z M 183.824219 148.628906 L 142.867188 148.628906 C 137.5 148.628906 137.5 140.472656 142.867188 140.398438 C 142.867188 140.398438 183.824219 140.398438 183.824219 140.398438 C 189.191406 140.472656 189.191406 148.628906 183.824219 148.628906 Z M 119.265625 158.996094 L 35.441406 158.996094 C 30.515625 158.996094 26.46875 163.039062 26.46875 167.964844 L 26.46875 220.816406 C 26.46875 225.742188 30.515625 229.785156 35.441406 229.785156 L 119.265625 229.785156 C 124.191406 229.785156 128.234375 225.742188 128.234375 220.816406 L 128.234375 167.964844 C 128.234375 163.039062 124.265625 158.996094 119.265625 158.996094 Z M 120.074219 220.816406 C 120.074219 221.257812 119.707031 221.625 119.265625 221.625 L 35.441406 221.625 C 35 221.625 34.632812 221.257812 34.632812 220.816406 L 34.632812 167.964844 C 34.632812 167.523438 35 167.15625 35.441406 167.15625 L 119.265625 167.15625 C 119.707031 167.15625 120.074219 167.523438 120.074219 167.964844 Z M 112.058594 191.265625 C 114.117188 196.191406 106.542969 199.351562 104.484375 194.425781 C 104.484375 194.425781 101.765625 187.957031 101.765625 187.957031 L 92.648438 211.699219 C 91.46875 215.15625 86.25 215.15625 85 211.773438 C 85 211.773438 82.5 205.378906 82.5 205.378906 C 81.398438 209.640625 76.03125 210.671875 74.265625 206.335938 C 74.265625 206.335938 69.707031 192.808594 69.707031 192.808594 L 63.96875 206.261719 C 62.867188 209.128906 58.675781 209.640625 56.910156 207.144531 C 56.910156 207.144531 54.558594 203.980469 54.558594 203.980469 L 49.925781 211.332031 C 48.75 213.246094 46.175781 213.832031 44.265625 212.582031 C 42.351562 211.40625 41.765625 208.832031 43.015625 206.921875 L 50.808594 194.648438 C 52.207031 192.222656 55.882812 192.148438 57.574219 194.351562 C 57.574219 194.351562 59.265625 196.558594 59.265625 196.558594 L 66.46875 179.652344 C 67.132812 178.105469 68.675781 177.078125 70.441406 177.152344 C 72.132812 177.226562 73.601562 178.328125 74.191406 179.945312 L 78.75 193.617188 C 79.707031 189.941406 85.148438 189.5 86.542969 193.175781 C 86.542969 193.175781 88.824219 198.835938 88.824219 198.835938 L 97.867188 175.3125 C 99.042969 171.933594 104.117188 171.785156 105.515625 175.167969 C 105.441406 175.3125 112.058594 191.265625 112.058594 191.265625 Z M 236.46875 158.996094 L 152.648438 158.996094 C 147.71875 158.996094 143.675781 163.039062 143.675781 167.964844 L 143.675781 220.816406 C 143.675781 225.742188 147.71875 229.785156 152.648438 229.785156 L 236.46875 229.785156 C 241.398438 229.785156 245.441406 225.742188 245.441406 220.816406 L 245.441406 167.964844 C 245.441406 163.039062 241.398438 158.996094 236.46875 158.996094 Z M 237.207031 220.816406 C 237.207031 221.257812 236.839844 221.625 236.398438 221.625 L 152.574219 221.625 C 152.132812 221.625 151.765625 221.257812 151.765625 220.816406 L 151.765625 167.964844 C 151.765625 167.523438 152.132812 167.15625 152.574219 167.15625 L 236.398438 167.15625 C 236.839844 167.15625 237.207031 167.523438 237.207031 167.964844 Z M 341.03125 67.035156 L 279.558594 67.035156 C 273.75 67.035156 269.042969 71.742188 269.042969 77.546875 C 268.234375 84.164062 272.5 90.632812 279.558594 90.558594 C 279.558594 90.558594 287.5 90.558594 287.5 90.558594 L 287.5 207.4375 C 287.5 218.90625 296.839844 228.167969 308.234375 228.167969 L 314.78125 228.167969 C 326.25 228.167969 335.515625 218.832031 335.515625 207.4375 L 335.515625 90.558594 L 341.03125 90.558594 C 346.839844 90.558594 351.542969 85.855469 351.542969 80.046875 C 352.425781 73.429688 348.089844 67.035156 341.03125 67.035156 Z M 327.28125 102.320312 L 320.074219 102.320312 C 317.792969 102.320312 315.957031 104.15625 315.957031 106.4375 C 315.957031 108.714844 317.792969 110.554688 320.074219 110.554688 L 327.28125 110.554688 L 327.28125 120.183594 L 320.074219 120.183594 C 317.792969 120.183594 315.957031 122.019531 315.957031 124.300781 C 315.957031 126.578125 317.792969 128.414062 320.074219 128.414062 L 327.28125 128.414062 L 327.28125 138.046875 L 320.074219 138.046875 C 317.792969 138.046875 315.957031 139.882812 315.957031 142.160156 C 315.957031 144.441406 317.792969 146.277344 320.074219 146.277344 L 327.28125 146.277344 L 327.28125 155.6875 L 320.074219 155.6875 C 317.792969 155.6875 315.957031 157.523438 315.957031 159.804688 C 315.957031 162.082031 317.792969 163.921875 320.074219 163.921875 L 327.28125 163.921875 L 327.28125 173.550781 L 320.074219 173.550781 C 317.792969 173.550781 315.957031 175.386719 315.957031 177.667969 C 315.957031 179.945312 317.792969 181.78125 320.074219 181.78125 L 327.28125 181.78125 L 327.28125 191.414062 L 320.074219 191.414062 C 317.792969 191.414062 315.957031 193.25 315.957031 195.527344 C 315.957031 197.808594 317.792969 199.644531 320.074219 199.644531 L 327.28125 199.644531 L 327.28125 207.65625 C 327.28125 214.566406 321.617188 220.226562 314.707031 220.226562 L 308.160156 220.226562 C 301.25 220.226562 295.589844 214.566406 295.589844 207.65625 L 295.589844 90.78125 L 327.207031 90.78125 L 327.207031 102.320312 Z M 343.382812 80.121094 C 343.382812 81.371094 342.351562 82.472656 341.03125 82.472656 L 279.558594 82.472656 C 278.308594 82.472656 277.207031 81.445312 277.207031 80.121094 C 277.207031 78.210938 276.839844 75.34375 279.558594 75.269531 C 279.558594 75.269531 341.03125 75.269531 341.03125 75.269531 C 343.75 75.34375 343.457031 78.210938 343.382812 80.121094 Z M 207.941406 197.585938 L 205 189.796875 C 212.351562 183.765625 207.71875 171.199219 198.089844 171.34375 C 191.25 171.269531 185.957031 178.179688 187.941406 184.722656 L 177.5 193.691406 C 162.058594 190.015625 158.75 213.539062 174.632812 214.347656 C 182.351562 214.566406 187.71875 205.671875 183.96875 198.984375 L 193.160156 191.117188 C 194.410156 191.78125 195.734375 192.148438 197.207031 192.292969 L 200.074219 199.9375 C 192.5 205.820312 197.058594 218.757812 206.765625 218.535156 C 219.851562 218.316406 220.957031 199.351562 207.941406 197.585938 Z M 174.707031 206.1875 C 171.617188 206.1875 171.617188 201.554688 174.707031 201.554688 C 177.71875 201.554688 177.71875 206.1875 174.707031 206.1875 Z M 198.601562 184.136719 C 195.292969 184.722656 194.78125 179.652344 198.160156 179.578125 C 200.808594 179.578125 201.398438 183.472656 198.601562 184.136719 Z M 206.691406 210.378906 C 203.601562 210.378906 203.601562 205.746094 206.691406 205.671875 C 209.78125 205.746094 209.78125 210.378906 206.691406 210.378906 Z M 206.691406 210.378906 " fill-opacity="1" fill-rule="nonzero"/></g></svg>